<svg id="svg" xmlns="http://www.w3.org/2000/svg" xmlns:xlink="http://www.w3.org/1999/xlink" width="400" height="400" viewBox="0, 0, 400,400"><g id="svgg"><path id="path0" d="M60.770 1.546 C 22.874 9.536,2.360 36.768,2.347 79.102 L 2.344 89.063 7.617 89.051 C 14.743 89.034,15.063 88.753,14.421 83.074 C 10.919 52.124,29.663 22.697,57.856 14.884 C 69.083 11.773,95.793 11.116,102.736 13.781 C 103.871 14.216,104.325 13.061,105.078 7.813 C 105.356 5.879,105.739 3.739,105.929 3.056 C 106.785 -0.011,73.444 -1.127,60.770 1.546 M141.852 3.846 C 118.830 8.886,120.226 6.699,125.111 30.078 C 128.975 48.570,128.168 47.288,135.162 46.039 L 140.780 45.035 140.303 42.244 C 140.041 40.709,138.991 35.652,137.971 31.005 C 136.333 23.546,136.265 22.618,137.394 23.073 C 138.097 23.356,141.836 24.796,145.703 26.273 C 184.926 41.248,229.410 70.945,270.689 109.710 L 279.781 118.249 284.074 113.956 L 288.367 109.662 279.916 101.511 C 260.194 82.490,235.379 62.266,218.148 51.172 C 212.135 47.300,211.935 47.957,220.508 43.424 C 230.585 38.096,230.058 38.978,226.911 32.729 L 224.189 27.324 214.845 32.217 C 204.704 37.527,204.653 37.591,207.196 41.900 C 208.145 43.510,208.585 44.628,208.172 44.386 C 207.759 44.144,203.203 41.412,198.047 38.314 C 188.922 32.833,166.484 21.323,156.250 16.874 L 151.172 14.666 157.776 13.163 C 165.859 11.324,165.299 12.000,163.987 5.675 C 162.601 -1.004,163.620 -0.920,141.852 3.846 M301.563 2.854 C 278.534 6.365,266.017 9.660,246.484 17.354 C 236.646 21.230,237.031 20.703,239.551 26.838 C 242.082 33.002,241.312 32.895,251.996 28.566 C 337.762 -6.187,391.633 23.924,381.835 101.140 C 381.668 102.458,392.399 105.517,393.462 104.455 C 395.614 102.303,395.590 69.565,393.429 60.156 C 385.984 27.733,365.886 8.826,333.203 3.496 C 326.828 2.457,306.830 2.051,301.563 2.854 M173.409 57.671 C 171.890 58.823,167.399 62.154,163.429 65.073 L 156.211 70.381 159.831 75.085 C 164.085 80.613,163.046 80.796,174.534 72.498 C 184.890 65.017,184.533 65.778,180.407 59.961 C 176.756 54.814,177.049 54.910,173.409 57.671 M128.125 94.183 C 117.316 104.029,117.832 102.662,122.997 107.763 L 127.257 111.971 134.065 105.526 C 137.810 101.982,141.872 98.343,143.093 97.441 C 145.980 95.306,145.952 95.168,141.648 90.182 C 137.155 84.979,138.748 84.508,128.125 94.183 M12.495 112.501 C 9.275 113.189,6.647 114.086,6.655 114.494 C 6.708 117.276,13.038 138.281,13.824 138.281 C 14.665 138.281,23.812 134.918,24.443 134.376 C 24.781 134.086,24.664 132.824,24.181 131.573 C 23.699 130.321,22.190 125.236,20.827 120.273 L 18.350 111.249 12.495 112.501 M101.511 120.084 C 65.280 157.649,33.454 204.037,17.876 241.982 C 14.624 249.904,14.579 249.905,13.006 242.062 C 11.447 234.291,12.161 234.892,5.871 236.051 C -0.881 237.295,-0.753 236.119,3.620 256.806 C 8.801 281.316,6.597 279.882,30.989 274.609 C 39.933 272.676,47.291 271.094,47.340 271.094 C 47.389 271.094,46.904 268.457,46.263 265.234 C 44.895 258.363,46.034 258.663,32.578 261.629 C 26.548 262.958,22.719 263.491,22.935 262.972 C 23.131 262.497,24.877 258.041,26.813 253.069 C 42.055 213.933,71.445 170.057,109.710 129.311 L 118.249 120.219 113.956 115.926 L 109.662 111.633 101.511 120.084 M366.953 116.358 C 348.691 121.733,350.349 120.587,352.009 126.688 C 353.849 133.448,353.351 133.308,364.340 130.156 C 369.734 128.609,374.493 127.344,374.915 127.344 C 376.687 127.344,367.141 151.684,358.946 168.060 C 342.091 201.741,320.156 232.883,290.814 264.792 L 281.163 275.286 285.561 279.635 L 289.959 283.984 297.367 276.172 C 334.541 236.971,370.448 181.776,382.371 145.508 C 384.158 140.071,384.481 140.264,386.628 148.047 C 387.636 151.699,388.802 154.688,389.219 154.688 C 392.161 154.688,400.000 151.860,400.000 150.799 C 400.000 148.294,389.956 114.621,388.891 113.556 C 386.569 111.234,382.666 111.733,366.953 116.358 M292.290 122.943 L 288.149 127.136 293.879 133.310 C 297.031 136.706,300.741 140.795,302.125 142.398 C 305.230 145.996,304.759 146.040,309.862 141.680 C 314.955 137.329,315.412 138.807,305.580 127.805 C 296.110 117.208,297.464 117.704,292.290 122.943 M27.574 158.648 L 22.725 160.912 23.953 163.854 C 25.567 167.721,30.170 176.893,32.554 180.991 L 34.449 184.248 39.295 181.510 C 41.960 180.005,44.300 178.614,44.495 178.420 C 45.090 177.828,34.085 156.245,33.225 156.317 C 32.783 156.354,30.240 157.403,27.574 158.648 M324.755 159.939 C 319.398 164.090,319.198 163.096,327.692 174.574 C 335.381 184.966,334.408 184.507,340.107 180.426 C 345.515 176.553,345.841 178.208,337.412 166.719 C 328.788 154.963,330.199 155.720,324.755 159.939 M357.813 208.231 C 355.449 209.684,353.164 211.012,352.734 211.183 C 352.064 211.449,359.028 225.965,361.131 228.684 C 361.686 229.401,363.195 228.964,367.301 226.896 L 372.738 224.158 367.856 214.813 C 365.172 209.674,362.780 205.496,362.542 205.529 C 362.304 205.561,360.176 206.777,357.813 208.231 M62.109 217.209 C 59.531 218.937,57.526 220.744,57.654 221.223 C 57.857 221.986,70.249 239.103,71.913 240.918 C 72.542 241.605,82.262 234.508,81.857 233.657 C 81.284 232.456,67.528 214.104,67.188 214.087 C 66.973 214.076,64.688 215.481,62.109 217.209 M372.852 239.634 C 367.152 242.025,367.200 241.810,370.581 249.735 C 407.186 335.534,376.683 391.717,298.861 381.835 C 297.585 381.673,294.662 392.227,295.628 393.508 C 296.118 394.158,310.781 395.313,318.543 395.313 C 391.152 395.313,417.719 331.837,381.792 244.198 C 378.796 236.890,379.065 237.028,372.852 239.634 M92.202 256.152 L 87.919 259.944 90.792 263.370 C 92.373 265.255,96.296 269.609,99.510 273.047 L 105.354 279.297 109.829 274.871 L 114.304 270.444 105.837 261.394 C 95.948 250.825,97.532 251.434,92.202 256.152 M120.263 285.672 L 116.079 290.096 123.469 297.033 C 164.092 335.159,217.938 370.216,254.562 382.380 C 259.921 384.160,259.721 384.485,251.953 386.628 C 244.600 388.657,244.777 388.376,246.736 394.920 C 248.524 400.892,247.378 400.888,267.960 394.984 C 291.631 388.194,290.339 390.470,283.659 367.339 C 278.257 348.629,279.417 350.348,273.312 352.009 C 266.565 353.846,266.720 353.199,270.177 365.153 C 273.151 375.437,273.204 375.814,271.594 375.333 C 231.291 363.306,178.727 330.803,135.938 291.450 C 130.996 286.905,126.389 282.751,125.700 282.218 C 124.634 281.393,123.823 281.908,120.263 285.672 M261.006 294.494 L 252.091 302.971 254.475 305.978 C 260.225 313.229,259.270 313.477,272.180 301.396 L 279.125 294.896 275.031 290.417 C 270.001 284.914,271.557 284.462,261.006 294.494 M0.759 302.666 C -5.832 362.004,23.579 397.656,79.120 397.656 L 89.582 397.656 89.281 393.164 C 88.726 384.852,89.800 385.558,77.573 385.467 C 30.763 385.123,6.019 353.067,13.106 301.953 C 14.015 295.397,14.701 296.260,7.610 295.027 L 1.721 294.003 0.759 302.666 M224.031 325.206 C 218.588 329.175,214.119 332.718,214.099 333.079 C 214.062 333.738,220.313 342.969,220.796 342.969 C 222.106 342.969,241.292 327.781,240.876 327.074 C 240.450 326.351,237.379 322.324,234.386 318.565 C 234.134 318.249,229.474 321.237,224.031 325.206 M167.188 360.573 C 161.816 363.322,157.091 365.694,156.686 365.844 C 155.940 366.119,159.909 376.317,161.033 377.012 C 161.933 377.568,183.594 366.548,183.594 365.534 C 183.594 363.953,178.702 355.468,177.821 355.521 C 177.344 355.550,172.559 357.823,167.188 360.573 M128.906 376.649 C 126.543 377.490,121.807 378.896,118.382 379.774 C 114.956 380.653,111.915 381.519,111.623 381.700 C 111.160 381.986,113.524 392.696,114.198 393.361 C 115.140 394.291,138.295 386.892,138.241 385.678 C 138.164 383.947,134.642 375.480,133.924 375.300 C 133.527 375.201,131.270 375.808,128.906 376.649 " stroke="none" fill="#000000" fill-rule="evenodd"></path></g></svg>